<svg version="1.1" id="Layer_1" xmlns="http://www.w3.org/2000/svg" xmlns:xlink="http://www.w3.org/1999/xlink" x="0px" y="0px"
	 width="100%" viewBox="0 0 172 200" enable-background="new 0 0 172 200" xml:space="preserve">
<path fill="#000000" opacity="1.000000" stroke="none" 
	d="
M1.000000,57.000000 
	C1.000000,38.000004 1.000000,19.500010 1.000000,1.000010 
	C58.333313,1.000007 115.666626,1.000007 172.999954,1.000003 
	C172.999969,67.666634 172.999969,134.333267 172.999985,200.999908 
	C115.666718,200.999939 58.333427,200.999939 1.000072,200.999969 
	C1.000000,153.166672 1.000000,105.333336 1.000000,57.000000 
M163.186325,15.772833 
	C162.027496,14.036266 160.868652,12.299699 159.422256,10.132217 
	C158.559692,11.667126 158.156662,13.493939 157.112427,14.001476 
	C155.194199,14.933812 152.911774,15.285248 150.750580,15.433649 
	C150.193726,15.471887 149.523087,13.852893 148.904709,12.995188 
	C150.344299,12.088531 151.786484,11.185958 153.222076,10.272986 
	C153.722122,9.954982 154.205811,9.611282 155.074799,9.023952 
	C151.014099,6.167442 148.059311,7.300656 146.032059,10.688722 
	C141.098480,18.934050 144.127777,27.591534 145.185913,36.113777 
	C145.212845,36.330685 146.003876,36.452713 147.549957,37.044140 
	C147.732071,32.582989 147.928268,28.569693 148.049713,24.554134 
	C148.149414,21.257584 149.384628,19.128046 153.062714,19.152168 
	C156.787735,19.176601 157.875549,21.440479 157.956177,24.677837 
	C158.026459,27.499390 157.872864,30.367100 158.331894,33.129040 
	C159.050430,37.452145 162.030670,38.418705 165.591766,35.751820 
	C159.636230,29.797239 159.360458,26.086939 164.136627,18.249502 
	C164.404968,17.809179 163.830734,16.855398 163.186325,15.772833 
M6.999527,21.517004 
	C7.070777,26.443369 7.142027,31.369732 7.213277,36.296097 
	C8.005911,36.291267 8.798545,36.286442 9.591179,36.281612 
	C9.867994,30.089695 10.144811,23.897776 10.421627,17.705858 
	C10.913352,17.604521 11.405078,17.503183 11.896804,17.401846 
	C17.531094,24.013813 23.165384,30.625780 28.799675,37.237747 
	C29.265776,36.898010 29.731878,36.558277 30.197979,36.218540 
	C30.197979,27.399956 30.197979,18.581373 30.197979,9.762792 
	C29.606161,9.740495 29.014345,9.718198 28.422527,9.695901 
	C28.143860,15.892995 27.865194,22.090090 27.586527,28.287184 
	C27.108868,28.387115 26.631207,28.487047 26.153547,28.586981 
	C20.567760,21.901255 14.981974,15.215530 9.396187,8.529805 
	C8.597303,8.824825 7.798420,9.119846 6.999536,9.414867 
	C6.999536,13.120034 6.999536,16.825201 6.999527,21.517004 
M94.236069,36.660740 
	C94.001228,30.943853 94.806557,24.916670 93.221298,19.602634 
	C91.807205,14.862378 83.806717,14.855762 80.539330,19.163931 
	C81.738319,19.101063 82.769211,18.783630 83.611816,19.053667 
	C85.873199,19.778393 88.054031,20.754459 90.266853,21.630709 
	C88.470291,22.585260 86.675262,23.542751 84.874153,24.488646 
	C84.733688,24.562416 84.549980,24.552059 84.387413,24.585825 
	C79.374237,25.627026 76.768333,28.436375 77.432640,32.082703 
	C78.119591,35.853306 82.098618,38.088764 86.769768,37.430805 
	C89.052544,37.109261 91.360870,36.969151 94.236069,36.660740 
M139.391083,24.282887 
	C136.821991,17.944185 133.530609,15.583067 127.976509,16.182987 
	C123.335640,16.684269 120.361778,19.174917 119.355408,23.785284 
	C118.111267,29.484879 120.033737,34.078976 124.592812,36.526325 
	C131.972885,40.488003 139.785278,34.491596 139.391083,24.282887 
M61.026466,32.086723 
	C61.323208,33.515160 61.619949,34.943596 61.916691,36.372032 
	C62.467861,36.332523 63.019032,36.293015 63.570202,36.253502 
	C63.713116,33.543274 63.970539,30.833403 63.979004,28.122751 
	C64.014587,16.731129 62.765476,16.117706 51.671680,16.879705 
	C46.305256,17.248306 45.780777,19.550587 45.978653,23.645056 
	C46.131119,26.799955 45.936989,29.973120 46.131039,33.123749 
	C46.208401,34.379791 46.915310,35.597061 47.793530,38.177311 
	C48.910763,35.723507 49.651520,34.764355 49.755219,33.740669 
	C50.039688,30.932577 49.944775,28.086916 50.207851,25.275574 
	C50.527687,21.857769 52.424881,19.623756 55.946220,19.519535 
	C59.691154,19.408697 60.528011,22.258692 60.822323,25.245338 
	C61.017578,27.226833 60.957237,29.233513 61.026466,32.086723 
M104.519676,34.423935 
	C103.207718,34.253117 101.895752,34.082294 99.710213,33.797729 
	C103.753723,38.090885 108.663055,38.825680 112.425156,36.427650 
	C116.690651,33.708744 116.592140,28.986622 112.101280,26.545940 
	C110.371002,25.605574 108.259163,25.343777 106.581528,24.338371 
	C105.478188,23.677134 104.840416,22.239038 103.994164,21.148817 
	C105.268158,20.305843 106.456375,18.988605 107.837662,18.738764 
	C109.603279,18.419407 111.524620,18.960978 113.378845,19.131517 
	C111.268860,15.503502 107.981491,15.490288 105.229774,16.532125 
	C103.277092,17.271442 100.868332,19.616302 100.694229,21.438591 
	C100.526154,23.197821 102.674622,25.532455 104.346046,26.997599 
	C105.607796,28.103622 107.868538,27.986919 109.407280,28.888050 
	C110.508034,29.532681 111.964218,31.127943 111.786568,31.997746 
	C111.571869,33.048939 109.911095,34.051781 108.665771,34.566502 
	C107.688217,34.970547 106.390907,34.601002 104.519676,34.423935 
M96.932938,181.061264 
	C98.441200,183.233917 99.949455,185.406586 101.881744,188.190063 
	C101.881744,185.902008 101.976028,184.114700 101.861008,182.340988 
	C101.656883,179.193237 100.299065,177.402695 96.734360,177.873932 
	C94.959564,178.108566 93.034355,177.403137 91.308136,177.758713 
	C89.017586,178.230499 85.691818,178.741211 84.916428,180.289597 
	C83.817070,182.484955 84.637489,185.641678 84.637489,188.387558 
	C85.189301,188.424942 85.741112,188.462311 86.292923,188.499695 
	C86.614296,186.825989 86.700806,185.054977 87.339844,183.512909 
	C87.763893,182.489609 88.978607,181.793945 89.839394,180.951630 
	C90.501686,181.804108 91.443718,182.564102 91.763084,183.529968 
	C92.290337,185.124557 92.415527,186.852097 92.710167,188.523605 
	C93.095825,188.527908 93.481491,188.532211 93.867149,188.536530 
	C94.703156,186.160370 95.539169,183.784225 96.932938,181.061264 
M50.950504,181.526718 
	C50.025669,187.388535 50.418625,187.867889 58.747784,191.730621 
	C56.602505,192.066666 54.457226,192.402695 52.307266,192.739456 
	C56.432285,196.051880 60.593426,194.957474 61.622784,190.205765 
	C62.039658,188.281372 62.325596,186.122299 61.867050,184.268951 
	C61.342613,182.149277 60.420341,179.453537 58.782932,178.433350 
	C55.948345,176.667221 52.984970,177.625366 50.950504,181.526718 
M149.605789,190.039398 
	C149.339279,190.859467 149.202911,192.298264 148.782516,192.386688 
	C147.370148,192.683777 145.856552,192.499588 143.717651,192.499588 
	C149.816879,196.248398 153.516876,194.563782 153.914200,188.535339 
	C154.055954,186.384842 154.307587,184.112030 153.772614,182.089890 
	C153.385681,180.627411 152.035751,178.910980 150.674088,178.313812 
	C147.092590,176.743118 143.575272,178.797775 142.620667,182.549744 
	C141.645935,186.380707 143.956314,189.036789 149.605789,190.039398 
M72.797607,19.616598 
	C72.327194,18.955372 71.856781,18.294147 71.386375,17.632921 
	C70.924065,17.719234 70.461761,17.805548 69.999458,17.891863 
	C69.999458,21.136751 70.030350,24.381998 69.992737,27.626450 
	C69.923813,33.571693 71.655045,40.292255 62.886169,42.381611 
	C67.698982,45.799244 72.246376,43.721249 72.687065,38.219769 
	C73.161179,32.300873 72.855591,26.319517 72.797607,19.616598 
M108.832962,178.040375 
	C104.574089,180.056915 103.856285,182.759857 105.942291,187.117874 
	C107.197487,185.247070 108.652016,183.079193 110.106544,180.911316 
	C111.549339,183.144913 112.992126,185.378510 114.110580,187.110001 
	C115.142181,185.367233 116.474510,183.116425 117.806847,180.865616 
	C119.340225,183.077011 120.873596,185.288406 122.194107,187.192825 
	C123.836731,182.348282 122.538353,178.049011 118.828720,177.824799 
	C115.719948,177.636902 112.586830,177.851822 108.832962,178.040375 
M80.993248,189.320557 
	C81.074455,186.342758 81.829994,183.177063 81.065948,180.434769 
	C80.114151,177.018616 76.394051,176.885620 73.870514,179.609848 
	C75.464104,179.910675 77.137535,180.226562 78.810966,180.542450 
	C78.110863,181.801300 77.389618,181.846161 76.946587,182.220398 
	C75.234352,183.666840 73.610870,185.218353 71.954315,186.730713 
	C74.111397,187.745026 76.242851,188.821533 78.444077,189.728760 
	C78.976883,189.948364 79.739998,189.609177 80.993248,189.320557 
M28.115866,176.434280 
	C25.707481,173.184875 21.830967,171.558716 19.061947,174.041504 
	C14.940151,177.737274 17.372280,183.122543 17.334993,187.438065 
	C19.914494,186.097824 21.991508,184.644730 24.297398,183.907410 
	C27.839441,182.774796 29.090889,180.626602 28.115866,176.434280 
M38.168613,17.619595 
	C36.281124,24.078741 36.395226,30.406290 39.139484,36.593693 
	C41.390293,30.374641 41.701851,24.145958 39.994968,17.872225 
	C39.921562,17.602421 39.155304,17.521122 38.168613,17.619595 
M41.943455,177.807617 
	C37.463539,179.098251 36.337391,182.306198 37.798454,186.246979 
	C39.000011,189.487823 41.918655,190.571869 45.119251,189.287430 
	C48.606197,187.888077 49.796947,184.720093 48.197910,181.600845 
	C47.284908,179.819870 44.557262,178.969147 41.943455,177.807617 
M132.062363,178.657257 
	C128.791534,181.393280 129.998978,184.614441 131.044281,187.856415 
	C131.725357,186.714935 131.794510,185.351562 132.414398,184.318756 
	C133.194031,183.019821 134.424225,181.991287 135.460007,180.846085 
	C136.292343,182.077225 137.306000,183.227295 137.903519,184.563446 
	C138.447083,185.778976 138.538544,187.196686 138.829285,188.525269 
	C139.527222,188.436264 140.225159,188.347275 140.923096,188.258270 
	C140.451935,185.288879 140.626633,181.951782 139.234573,179.506668 
	C138.548172,178.301025 134.967056,178.743408 132.062363,178.657257 
M127.037529,179.871735 
	C124.302277,182.248734 124.235062,185.289642 127.437836,188.906631 
	C127.437836,185.616669 127.437836,182.954163 127.037529,179.871735 
M65.084053,182.111786 
	C65.200951,184.036819 65.317848,185.961838 65.434753,187.886871 
	C65.704735,187.845642 65.974716,187.804413 66.244705,187.763199 
	C67.282234,184.799759 68.319771,181.836319 69.357300,178.872894 
	C69.053711,178.576813 68.750130,178.280746 68.446541,177.984665 
	C67.351212,179.121704 66.255890,180.258743 65.084053,182.111786 
M33.192947,183.883133 
	C33.971905,182.218643 34.750866,180.554153 35.632614,178.670013 
	C30.683767,179.373749 29.690243,182.445831 32.453022,188.221848 
	C32.715652,186.732620 32.907612,185.644119 33.192947,183.883133 
z"/>
<path fill="#050505" opacity="1.000000" stroke="none" 
	d="
M163.417511,15.956717 
	C163.830734,16.855398 164.404968,17.809179 164.136627,18.249502 
	C159.360458,26.086939 159.636230,29.797239 165.591766,35.751820 
	C162.030670,38.418705 159.050430,37.452145 158.331894,33.129040 
	C157.872864,30.367100 158.026459,27.499390 157.956177,24.677837 
	C157.875549,21.440479 156.787735,19.176601 153.062714,19.152168 
	C149.384628,19.128046 148.149414,21.257584 148.049713,24.554134 
	C147.928268,28.569693 147.732071,32.582989 147.549957,37.044140 
	C146.003876,36.452713 145.212845,36.330685 145.185913,36.113777 
	C144.127777,27.591534 141.098480,18.934050 146.032059,10.688722 
	C148.059311,7.300656 151.014099,6.167442 155.074799,9.023952 
	C154.205811,9.611282 153.722122,9.954982 153.222076,10.272986 
	C151.786484,11.185958 150.344299,12.088531 148.904709,12.995192 
	C149.523087,13.852893 150.193726,15.471887 150.750580,15.433649 
	C152.911774,15.285248 155.194199,14.933812 157.112427,14.001476 
	C158.156662,13.493939 158.559692,11.667126 159.422256,10.132217 
	C160.868652,12.299699 162.027496,14.036266 163.417511,15.956717 
z"/>
<path fill="#050505" opacity="1.000000" stroke="none" 
	d="
M6.999532,21.023685 
	C6.999536,16.825201 6.999536,13.120034 6.999536,9.414867 
	C7.798420,9.119846 8.597303,8.824825 9.396187,8.529805 
	C14.981974,15.215530 20.567760,21.901255 26.153547,28.586981 
	C26.631207,28.487047 27.108868,28.387115 27.586527,28.287184 
	C27.865194,22.090090 28.143860,15.892995 28.422527,9.695901 
	C29.014345,9.718198 29.606161,9.740495 30.197979,9.762792 
	C30.197979,18.581373 30.197979,27.399956 30.197979,36.218540 
	C29.731878,36.558277 29.265776,36.898010 28.799675,37.237747 
	C23.165384,30.625780 17.531094,24.013813 11.896804,17.401846 
	C11.405078,17.503183 10.913352,17.604521 10.421627,17.705858 
	C10.144811,23.897776 9.867994,30.089695 9.591179,36.281612 
	C8.798545,36.286442 8.005911,36.291267 7.213277,36.296097 
	C7.142027,31.369732 7.070777,26.443369 6.999532,21.023685 
z"/>
<path fill="#050505" opacity="1.000000" stroke="none" 
	d="
M93.946854,36.703827 
	C91.360870,36.969151 89.052544,37.109261 86.769768,37.430805 
	C82.098618,38.088764 78.119591,35.853306 77.432640,32.082703 
	C76.768333,28.436375 79.374237,25.627026 84.387413,24.585825 
	C84.549980,24.552059 84.733688,24.562416 84.874153,24.488646 
	C86.675262,23.542751 88.470291,22.585260 90.266853,21.630709 
	C88.054031,20.754459 85.873199,19.778393 83.611816,19.053667 
	C82.769211,18.783630 81.738319,19.101063 80.539330,19.163931 
	C83.806717,14.855762 91.807205,14.862378 93.221298,19.602634 
	C94.806557,24.916670 94.001228,30.943853 93.946854,36.703827 
z"/>
<path fill="#050505" opacity="1.000000" stroke="none" 
	d="
M139.472046,24.663244 
	C139.785278,34.491596 131.972885,40.488003 124.592812,36.526325 
	C120.033737,34.078976 118.111267,29.484879 119.355408,23.785284 
	C120.361778,19.174917 123.335640,16.684269 127.976509,16.182987 
	C133.530609,15.583067 136.821991,17.944185 139.472046,24.663244 
M134.595200,22.080658 
	C131.966400,18.911179 128.822342,18.334627 125.416176,20.601023 
	C122.266693,22.696627 120.920174,27.826509 123.411438,30.689959 
	C125.046715,32.569550 128.443588,34.325333 130.697372,33.958797 
	C135.114777,33.240383 136.277328,29.347515 135.684677,25.113838 
	C135.572098,24.309555 135.219162,23.538919 134.595200,22.080658 
z"/>
<path fill="#050505" opacity="1.000000" stroke="none" 
	d="
M61.018890,31.657822 
	C60.957237,29.233513 61.017578,27.226833 60.822323,25.245338 
	C60.528011,22.258692 59.691154,19.408697 55.946220,19.519535 
	C52.424881,19.623756 50.527687,21.857769 50.207851,25.275574 
	C49.944775,28.086916 50.039688,30.932577 49.755219,33.740669 
	C49.651520,34.764355 48.910763,35.723507 47.793530,38.177311 
	C46.915310,35.597061 46.208401,34.379791 46.131039,33.123749 
	C45.936989,29.973120 46.131119,26.799955 45.978653,23.645056 
	C45.780777,19.550587 46.305256,17.248306 51.671680,16.879705 
	C62.765476,16.117706 64.014587,16.731129 63.979004,28.122751 
	C63.970539,30.833403 63.713116,33.543274 63.570202,36.253502 
	C63.019032,36.293015 62.467861,36.332523 61.916691,36.372032 
	C61.619949,34.943596 61.323208,33.515160 61.018890,31.657822 
z"/>
<path fill="#050505" opacity="1.000000" stroke="none" 
	d="
M104.877663,34.499527 
	C106.390907,34.601002 107.688217,34.970547 108.665771,34.566502 
	C109.911095,34.051781 111.571869,33.048939 111.786568,31.997746 
	C111.964218,31.127943 110.508034,29.532681 109.407280,28.888050 
	C107.868538,27.986919 105.607796,28.103622 104.346046,26.997599 
	C102.674622,25.532455 100.526154,23.197821 100.694229,21.438591 
	C100.868332,19.616302 103.277092,17.271442 105.229774,16.532125 
	C107.981491,15.490288 111.268860,15.503502 113.378845,19.131517 
	C111.524620,18.960978 109.603279,18.419407 107.837662,18.738764 
	C106.456375,18.988605 105.268158,20.305843 103.994164,21.148819 
	C104.840416,22.239038 105.478188,23.677134 106.581528,24.338371 
	C108.259163,25.343777 110.371002,25.605574 112.101280,26.545940 
	C116.592140,28.986622 116.690651,33.708744 112.425156,36.427650 
	C108.663055,38.825680 103.753723,38.090885 99.710213,33.797729 
	C101.895752,34.082294 103.207718,34.253117 104.877663,34.499527 
z"/>
<path fill="#141719" opacity="1.000000" stroke="none" 
	d="
M96.654053,181.234665 
	C95.539169,183.784225 94.703156,186.160370 93.867149,188.536530 
	C93.481491,188.532211 93.095825,188.527908 92.710167,188.523605 
	C92.415527,186.852097 92.290337,185.124557 91.763084,183.529968 
	C91.443718,182.564102 90.501686,181.804108 89.839394,180.951630 
	C88.978607,181.793945 87.763893,182.489609 87.339844,183.512909 
	C86.700806,185.054977 86.614296,186.825989 86.292923,188.499695 
	C85.741112,188.462311 85.189301,188.424942 84.637489,188.387558 
	C84.637489,185.641678 83.817070,182.484955 84.916428,180.289597 
	C85.691818,178.741211 89.017586,178.230499 91.308136,177.758713 
	C93.034355,177.403137 94.959564,178.108566 96.734360,177.873932 
	C100.299065,177.402695 101.656883,179.193237 101.861008,182.340988 
	C101.976028,184.114700 101.881744,185.902008 101.881744,188.190063 
	C99.949455,185.406586 98.441200,183.233917 96.654053,181.234665 
z"/>
<path fill="#141719" opacity="1.000000" stroke="none" 
	d="
M51.098370,181.197479 
	C52.984970,177.625366 55.948345,176.667221 58.782932,178.433350 
	C60.420341,179.453537 61.342613,182.149277 61.867050,184.268951 
	C62.325596,186.122299 62.039658,188.281372 61.622784,190.205765 
	C60.593426,194.957474 56.432285,196.051880 52.307266,192.739456 
	C54.457226,192.402695 56.602505,192.066666 58.747784,191.730621 
	C50.418625,187.867889 50.025669,187.388535 51.098370,181.197479 
M55.220921,186.910110 
	C56.611195,186.216232 58.424454,185.825882 59.225700,184.709320 
	C59.672897,184.086136 58.758186,181.891663 57.851223,181.095779 
	C57.228230,180.549057 54.557426,181.067261 54.526928,181.318710 
	C54.319981,183.024826 54.571945,184.786621 55.220921,186.910110 
z"/>
<path fill="#141719" opacity="1.000000" stroke="none" 
	d="
M149.336594,190.000244 
	C143.956314,189.036789 141.645935,186.380707 142.620667,182.549744 
	C143.575272,178.797775 147.092590,176.743118 150.674088,178.313812 
	C152.035751,178.910980 153.385681,180.627411 153.772614,182.089890 
	C154.307587,184.112030 154.055954,186.384842 153.914200,188.535339 
	C153.516876,194.563782 149.816879,196.248398 143.717651,192.499588 
	C145.856552,192.499588 147.370148,192.683777 148.782516,192.386688 
	C149.202911,192.298264 149.339279,190.859467 149.336594,190.000244 
M148.490860,180.448242 
	C147.499695,181.831284 146.219299,183.113724 145.683121,184.655045 
	C145.508774,185.156250 147.207077,186.915253 148.180511,187.035782 
	C149.119980,187.152130 151.166656,185.755280 151.093231,185.270813 
	C150.844330,183.628677 149.871628,182.096268 148.490860,180.448242 
z"/>
<path fill="#050505" opacity="1.000000" stroke="none" 
	d="
M72.843903,19.991007 
	C72.855591,26.319517 73.161179,32.300873 72.687065,38.219769 
	C72.246376,43.721249 67.698982,45.799244 62.886169,42.381611 
	C71.655045,40.292255 69.923813,33.571693 69.992737,27.626450 
	C70.030350,24.381998 69.999458,21.136751 69.999458,17.891863 
	C70.461761,17.805548 70.924065,17.719234 71.386375,17.632921 
	C71.856781,18.294147 72.327194,18.955372 72.843903,19.991007 
z"/>
<path fill="#141719" opacity="1.000000" stroke="none" 
	d="
M109.148727,177.964386 
	C112.586830,177.851822 115.719948,177.636902 118.828720,177.824799 
	C122.538353,178.049011 123.836731,182.348282 122.194107,187.192825 
	C120.873596,185.288406 119.340225,183.077011 117.806839,180.865616 
	C116.474510,183.116425 115.142181,185.367233 114.110580,187.110001 
	C112.992126,185.378510 111.549339,183.144913 110.106537,180.911316 
	C108.652016,183.079193 107.197487,185.247070 105.942291,187.117874 
	C103.856285,182.759857 104.574089,180.056915 109.148727,177.964386 
z"/>
<path fill="#141719" opacity="1.000000" stroke="none" 
	d="
M80.695229,189.423752 
	C79.739998,189.609177 78.976883,189.948364 78.444077,189.728760 
	C76.242851,188.821533 74.111397,187.745026 71.954315,186.730713 
	C73.610870,185.218353 75.234352,183.666840 76.946587,182.220398 
	C77.389618,181.846161 78.110863,181.801300 78.810966,180.542450 
	C77.137535,180.226562 75.464104,179.910675 73.870514,179.609848 
	C76.394051,176.885620 80.114151,177.018616 81.065948,180.434769 
	C81.829994,183.177063 81.074455,186.342758 80.695229,189.423752 
z"/>
<path fill="#141719" opacity="1.000000" stroke="none" 
	d="
M28.261921,176.776901 
	C29.090889,180.626602 27.839441,182.774796 24.297398,183.907410 
	C21.991508,184.644730 19.914494,186.097824 17.334993,187.438065 
	C17.372280,183.122543 14.940151,177.737274 19.061947,174.041504 
	C21.830967,171.558716 25.707481,173.184875 28.261921,176.776901 
M25.949444,179.259949 
	C25.579205,175.912323 23.312828,175.747589 21.037956,176.821381 
	C20.280281,177.179031 20.296129,179.175446 19.958357,180.422684 
	C21.888901,180.237839 23.819447,180.053009 25.949444,179.259949 
z"/>
<path fill="#050505" opacity="1.000000" stroke="none" 
	d="
M38.440208,17.485802 
	C39.155304,17.521122 39.921562,17.602421 39.994968,17.872225 
	C41.701851,24.145958 41.390293,30.374641 39.139484,36.593693 
	C36.395226,30.406290 36.281124,24.078741 38.440208,17.485802 
z"/>
<path fill="#141719" opacity="1.000000" stroke="none" 
	d="
M42.295071,177.753601 
	C44.557262,178.969147 47.284908,179.819870 48.197910,181.600845 
	C49.796947,184.720093 48.606197,187.888077 45.119251,189.287430 
	C41.918655,190.571869 39.000011,189.487823 37.798454,186.246979 
	C36.337391,182.306198 37.463539,179.098251 42.295071,177.753601 
M44.610546,180.922546 
	C43.049622,181.646194 41.238056,182.110306 40.068760,183.239502 
	C39.678974,183.615906 40.611938,186.079117 41.547726,186.864777 
	C42.196659,187.409622 44.829494,186.962616 44.941631,186.532593 
	C45.371880,184.882614 45.142433,183.060608 44.610546,180.922546 
z"/>
<path fill="#141719" opacity="1.000000" stroke="none" 
	d="
M132.379074,178.548660 
	C134.967056,178.743408 138.548172,178.301025 139.234573,179.506668 
	C140.626633,181.951782 140.451935,185.288879 140.923096,188.258270 
	C140.225159,188.347275 139.527222,188.436264 138.829285,188.525269 
	C138.538544,187.196686 138.447083,185.778976 137.903519,184.563446 
	C137.306000,183.227295 136.292343,182.077225 135.460007,180.846085 
	C134.424225,181.991287 133.194031,183.019821 132.414398,184.318756 
	C131.794510,185.351562 131.725357,186.714935 131.044281,187.856415 
	C129.998978,184.614441 128.791534,181.393280 132.379074,178.548660 
z"/>
<path fill="#141719" opacity="1.000000" stroke="none" 
	d="
M127.237686,180.081696 
	C127.437836,182.954163 127.437836,185.616669 127.437836,188.906631 
	C124.235062,185.289642 124.302277,182.248734 127.237686,180.081696 
z"/>
<path fill="#141719" opacity="1.000000" stroke="none" 
	d="
M65.122307,181.753784 
	C66.255890,180.258743 67.351212,179.121704 68.446541,177.984665 
	C68.750130,178.280746 69.053711,178.576813 69.357300,178.872894 
	C68.319771,181.836319 67.282234,184.799759 66.244705,187.763199 
	C65.974716,187.804413 65.704735,187.845642 65.434753,187.886871 
	C65.317848,185.961838 65.200951,184.036819 65.122307,181.753784 
z"/>
<path fill="#141719" opacity="1.000000" stroke="none" 
	d="
M33.146263,184.219360 
	C32.907612,185.644119 32.715652,186.732620 32.453022,188.221848 
	C29.690243,182.445831 30.683767,179.373749 35.632614,178.670013 
	C34.750866,180.554153 33.971905,182.218643 33.146263,184.219360 
z"/>
<path fill="#000000" opacity="1.000000" stroke="none" 
	d="
M134.786163,22.416710 
	C135.219162,23.538919 135.572098,24.309555 135.684677,25.113838 
	C136.277328,29.347515 135.114777,33.240383 130.697372,33.958797 
	C128.443588,34.325333 125.046715,32.569550 123.411438,30.689959 
	C120.920174,27.826509 122.266693,22.696627 125.416176,20.601023 
	C128.822342,18.334627 131.966400,18.911179 134.786163,22.416710 
z"/>
<path fill="#000000" opacity="1.000000" stroke="none" 
	d="
M54.948273,186.720276 
	C54.571945,184.786621 54.319981,183.024826 54.526928,181.318710 
	C54.557426,181.067261 57.228230,180.549057 57.851223,181.095779 
	C58.758186,181.891663 59.672897,184.086136 59.225700,184.709320 
	C58.424454,185.825882 56.611195,186.216232 54.948273,186.720276 
z"/>
<path fill="#000000" opacity="1.000000" stroke="none" 
	d="
M148.833160,180.485092 
	C149.871628,182.096268 150.844330,183.628677 151.093231,185.270813 
	C151.166656,185.755280 149.119980,187.152130 148.180511,187.035782 
	C147.207077,186.915253 145.508774,185.156250 145.683121,184.655045 
	C146.219299,183.113724 147.499695,181.831284 148.833160,180.485092 
z"/>
<path fill="#000000" opacity="1.000000" stroke="none" 
	d="
M25.849716,179.564056 
	C23.819447,180.053009 21.888901,180.237839 19.958359,180.422684 
	C20.296129,179.175446 20.280281,177.179031 21.037956,176.821381 
	C23.312828,175.747589 25.579205,175.912323 25.849716,179.564056 
z"/>
<path fill="#000000" opacity="1.000000" stroke="none" 
	d="
M44.884834,181.112671 
	C45.142433,183.060608 45.371880,184.882614 44.941631,186.532593 
	C44.829494,186.962616 42.196659,187.409622 41.547726,186.864777 
	C40.611938,186.079117 39.678974,183.615906 40.068760,183.239502 
	C41.238056,182.110306 43.049622,181.646194 44.884834,181.112671 
z"/>
</svg>